<?xml version="1.0" standalone="no"?>
<!DOCTYPE svg PUBLIC "-//W3C//DTD SVG 1.1//EN" "http://www.w3.org/Graphics/SVG/1.1/DTD/svg11.dtd" >
<svg>
<metadata>
Created by FontForge 20110222 at Tue Nov 12 13:29:19 2013
 By Orthosie Webhosting
Copyright Patrick Lauke 2012
</metadata>
<defs>
<font id="SuperMarioWorldSmall1andSmall2Regular" horiz-adv-x="896" >
  <font-face 
    font-family="SuperMarioWorldSmall1andSmall2Regular"
    font-weight="400"
    font-variant="small-caps"
    font-stretch="normal"
    units-per-em="1024"
    panose-1="0 0 4 0 0 0 0 0 0 0"
    ascent="819"
    descent="-205"
    x-height="768"
    cap-height="768"
    bbox="0 0 768 768"
    underline-thickness="51"
    underline-position="126"
    unicode-range="U+0020-2026"
  />
<missing-glyph 
d="M384 109v122h-123v-122h123zM506 251v123h-245v-123h245zM384 393v123h-123v-123h123zM506 536v122h-122q-51 0 -87 -36t-36 -86h245zM0 0v768h768v-768h-768z" />
    <glyph glyph-name=".notdef" 
d="M384 109v122h-123v-122h123zM506 251v123h-245v-123h245zM384 393v123h-123v-123h123zM506 536v122h-122q-51 0 -87 -36t-36 -86h245zM0 0v768h768v-768h-768z" />
    <glyph glyph-name="glyph1" 
 />
    <glyph glyph-name="glyph2" 
 />
    <glyph glyph-name="space" unicode=" " 
 />
    <glyph glyph-name="exclam" unicode="!" 
d="M256 0v128h256v-128h-256zM256 256v512h256v-512h-256z" />
    <glyph glyph-name="quotesingle" unicode="'" 
d="M128 256v128h128v-128h-128zM256 384v128h-128v256h256v-384h-128z" />
    <glyph glyph-name="comma" unicode="," 
d="M256 0v128h128v-128h-128zM384 128v128h-128v256h256v-384h-128z" />
    <glyph glyph-name="hyphen" unicode="-" 
d="M128 256v128h512v-128h-512z" />
    <glyph glyph-name="period" unicode="." 
d="M256 0v256h256v-256h-256z" />
    <glyph glyph-name="zero" unicode="0" 
d="M512 128v384h-256v-384h256zM128 0v128h-128v384h128v128h512v-128h128v-384h-128v-128h-512z" />
    <glyph glyph-name="one" unicode="1" 
d="M256 0v512h-128v128h384v-640h-256z" />
    <glyph glyph-name="two" unicode="2" 
d="M0 0v128h128v128h128v128h256v128h-256v-128h-256v128h128v128h512v-128h128v-128h-128v-128h-256v-128h384v-128h-768z" />
    <glyph glyph-name="three" unicode="3" 
d="M0 0v128h512v128h-256v128h256v128h-512v128h640v-128h128v-128h-128v-128h128v-128h-128v-128h-640z" />
    <glyph glyph-name="four" unicode="4" 
d="M128 384v128h128v-128h-128zM384 0v128h-384v256h128v-128h256v256h-128v128h384v-384h128v-128h-128v-128h-256z" />
    <glyph glyph-name="five" unicode="5" 
d="M0 0v128h512v128h-512v384h640v-128h-384v-128h384v-128h128v-128h-128v-128h-640z" />
    <glyph glyph-name="six" unicode="6" 
d="M512 128v128h-256v-128h256zM128 0v128h-128v384h128v128h512v-128h-384v-128h384v-128h128v-128h-128v-128h-512z" />
    <glyph glyph-name="seven" unicode="7" 
d="M256 0v256h128v128h128v128h-256v-128h-256v256h768v-256h-128v-128h-128v-256h-256z" />
    <glyph glyph-name="eight" unicode="8" 
d="M512 128v128h-256v-128h256zM512 384v128h-256v-128h256zM128 0v128h-128v128h128v128h-128v128h128v128h512v-128h128v-128h-128v-128h128v-128h-128v-128h-512z" />
    <glyph glyph-name="nine" unicode="9" 
d="M512 384v128h-256v-128h256zM128 0v128h384v128h-384v128h-128v128h128v128h512v-128h128v-384h-128v-128h-512z" />
    <glyph glyph-name="colon" unicode=":" 
d="M256 0v256h256v-256h-256zM256 384v256h256v-256h-256z" />
    <glyph glyph-name="equal" unicode="=" 
d="M128 128v128h512v-128h-512zM128 512v128h512v-128h-512z" />
    <glyph glyph-name="A" unicode="A" 
d="M0 0v512h128v128h128v-256h256v256h128v-128h128v-512h-256v256h-256v-256h-256zM256 640v128h256v-128h-256z" />
    <glyph glyph-name="B" unicode="B" 
d="M512 128v256h-256v-256h256zM512 512v128h-256v-128h256zM0 0v768h640v-128h128v-128h-128v-128h128v-256h-128v-128h-640z" />
    <glyph glyph-name="C" unicode="C" 
d="M128 0v128h-128v512h128v128h512v-128h128v-128h-256v128h-256v-512h256v128h256v-128h-128v-128h-512z" />
    <glyph glyph-name="D" unicode="D" 
d="M512 128v512h128v-128h128v-256h-128v-128h-128zM0 0v768h512v-128h-256v-512h256v-128h-512z" />
    <glyph glyph-name="E" unicode="E" 
d="M0 0v768h768v-128h-512v-128h384v-128h-384v-256h512v-128h-768z" />
    <glyph glyph-name="F" unicode="F" 
d="M0 0v768h768v-128h-512v-128h384v-128h-384v-384h-256z" />
    <glyph glyph-name="G" unicode="G" 
d="M128 0v128h-128v512h128v128h512v-128h128v-128h-256v128h-256v-512h256v128h-128v128h384v-384h-640z" />
    <glyph glyph-name="H" unicode="H" 
d="M0 0v768h256v-256h256v256h256v-768h-256v384h-256v-384h-256z" />
    <glyph glyph-name="I" unicode="I" 
d="M128 0v128h128v512h-128v128h512v-128h-128v-512h128v-128h-512z" />
    <glyph glyph-name="J" unicode="J" 
d="M128 0v128h-128v128h256v-128h128v512h-128v128h512v-128h-128v-512h-128v-128h-384z" />
    <glyph glyph-name="K" unicode="K" 
d="M0 0v768h256v-256h128v128h128v128h256v-128h-128v-128h-128v-256h128v-128h128v-128h-256v128h-128v128h-128v-256h-256z" />
    <glyph glyph-name="L" unicode="L" 
d="M0 0v768h256v-640h512v-128h-768z" />
    <glyph glyph-name="M" unicode="M" 
d="M0 0v768h256v-128h128v-128h128v128h128v128h128v-768h-128v384h-128v-128h-128v128h-128v-384h-256z" />
    <glyph glyph-name="N" unicode="N" 
d="M0 0v768h256v-128h128v-128h128v-128h128v384h128v-768h-128v128h-128v128h-128v128h-128v-384h-256z" />
    <glyph glyph-name="O" unicode="O" 
d="M512 128v512h-256v-512h256zM128 0v128h-128v512h128v128h512v-128h128v-512h-128v-128h-512z" />
    <glyph glyph-name="P" unicode="P" 
d="M512 384v256h-256v-256h256zM0 0v768h640v-128h128v-256h-128v-128h-384v-256h-256z" />
    <glyph glyph-name="Q" unicode="Q" 
d="M128 0v128h-128v512h128v128h512v-128h128v-384h-128v-128h128v-128h-256v128h-128v128h128v384h-256v-512h128v-128h-256z" />
    <glyph glyph-name="R" unicode="R" 
d="M512 384v256h-256v-256h256zM0 0v768h640v-128h128v-256h-128v-256h128v-128h-256v128h-128v128h-128v-256h-256z" />
    <glyph glyph-name="S" unicode="S" 
d="M128 0v128h-128v128h256v-128h256v256h-384v128h-128v128h128v128h512v-128h-384v-128h384v-128h128v-256h-128v-128h-512z" />
    <glyph glyph-name="T" unicode="T" 
d="M256 0v640h-256v128h768v-128h-256v-640h-256z" />
    <glyph glyph-name="U" unicode="U" 
d="M128 0v128h-128v640h256v-640h256v640h256v-640h-128v-128h-512z" />
    <glyph glyph-name="V" unicode="V" 
d="M256 0v128h-128v256h-128v384h256v-512h256v512h256v-384h-128v-256h-128v-128h-256z" />
    <glyph glyph-name="W" unicode="W" 
d="M256 0v128h-256v640h256v-512h128v512h128v-512h128v512h128v-640h-128v-128h-128v128h-128v-128h-128z" />
    <glyph glyph-name="X" unicode="X" 
d="M0 0v128h128v-128h-128zM128 128v128h128v-128h-128zM512 512v128h128v-128h-128zM512 0v128h-128v128h-128v128h-128v128h-128v256h256v-128h128v-128h128v-128h128v-128h128v-256h-256zM640 640v128h128v-128h-128z" />
    <glyph glyph-name="Y" unicode="Y" 
d="M256 0v384h-128v128h-128v256h256v-256h256v256h256v-256h-128v-128h-128v-384h-256z" />
    <glyph glyph-name="Z" unicode="Z" 
d="M0 0v256h128v128h128v128h128v128h-384v128h768v-256h-128v-128h-128v-128h-128v-128h384v-128h-768z" />
    <glyph glyph-name="underscore" unicode="_" 
d="M128 0v128h512v-128h-512z" />
    <glyph glyph-name="a" unicode="a" 
d="M512 384v256h-256v-256h256zM0 0v640h128v128h512v-128h128v-640h-256v256h-256v-256h-256z" />
    <glyph glyph-name="b" unicode="b" 
d="M512 128v256h-256v-256h256zM512 512v128h-256v-128h256zM0 0v768h640v-128h128v-128h-128v-128h128v-256h-128v-128h-640z" />
    <glyph glyph-name="c" unicode="c" 
d="M128 0v128h-128v512h128v128h512v-128h128v-128h-256v128h-256v-512h256v128h256v-128h-128v-128h-512z" />
    <glyph glyph-name="d" unicode="d" 
d="M512 128v512h-256v-512h256zM0 0v768h640v-128h128v-512h-128v-128h-640z" />
    <glyph glyph-name="e" unicode="e" 
d="M0 0v768h768v-128h-512v-128h512v-128h-512v-256h512v-128h-768z" />
    <glyph glyph-name="f" unicode="f" 
d="M0 0v768h768v-128h-512v-128h512v-128h-512v-384h-256z" />
    <glyph glyph-name="g" unicode="g" 
d="M128 0v128h-128v512h128v128h512v-128h128v-128h-256v128h-256v-512h256v128h-128v128h384v-256h-128v-128h-512z" />
    <glyph glyph-name="h" unicode="h" 
d="M0 0v768h256v-256h256v256h256v-768h-256v384h-256v-384h-256z" />
    <glyph glyph-name="i" unicode="i" 
d="M0 0v128h256v512h-256v128h768v-128h-256v-512h256v-128h-768z" />
    <glyph glyph-name="j" unicode="j" 
d="M128 0v128h-128v128h256v-128h128v512h-128v128h512v-128h-128v-512h-128v-128h-384z" />
    <glyph glyph-name="k" unicode="k" 
d="M0 0v768h256v-256h128v128h128v128h256v-128h-128v-128h-128v-256h128v-128h128v-128h-256v128h-128v128h-128v-256h-256z" />
    <glyph glyph-name="l" unicode="l" 
d="M0 0v768h256v-640h512v-128h-768z" />
    <glyph glyph-name="m" unicode="m" 
d="M0 0v768h128v-128h128v-128h128v128h128v128h256v-768h-256v256h-128v-128h-128v128h-128v-256h-128z" />
    <glyph glyph-name="n" unicode="n" 
d="M0 0v768h128v-128h128v-128h128v-128h128v384h256v-768h-384v128h-128v128h-128v-256h-128z" />
    <glyph glyph-name="o" unicode="o" 
d="M512 128v512h-256v-512h256zM128 0v128h-128v512h128v128h512v-128h128v-512h-128v-128h-512z" />
    <glyph glyph-name="p" unicode="p" 
d="M512 384v256h-256v-256h256zM0 0v768h640v-128h128v-256h-128v-128h-384v-256h-256z" />
    <glyph glyph-name="q" unicode="q" 
d="M128 0v128h-128v512h128v128h512v-128h128v-384h-128v-128h128v-128h-256v128h-128v128h128v384h-256v-512h128v-128h-256z" />
    <glyph glyph-name="r" unicode="r" 
d="M512 384v256h-256v-256h256zM0 0v768h640v-128h128v-256h-128v-128h128v-256h-256v128h-128v128h-128v-256h-256z" />
    <glyph glyph-name="s" unicode="s" 
d="M0 0v128h512v256h-384v128h-128v128h128v128h640v-128h-512v-128h384v-128h128v-256h-128v-128h-640z" />
    <glyph glyph-name="t" unicode="t" 
d="M256 0v640h-256v128h768v-128h-256v-640h-256z" />
    <glyph glyph-name="u" unicode="u" 
d="M128 0v128h-128v640h256v-640h256v640h256v-640h-128v-128h-512z" />
    <glyph glyph-name="v" unicode="v" 
d="M256 0v128h-128v128h-128v512h256v-512h256v512h256v-512h-128v-128h-128v-128h-256z" />
    <glyph glyph-name="w" unicode="w" 
d="M0 0v768h128v-256h128v128h128v-128h128v256h256v-768h-256v128h-128v128h-128v-128h-128v-128h-128z" />
    <glyph glyph-name="x" unicode="x" 
d="M0 0v128h128v-128h-128zM128 128v128h128v-128h-128zM512 512v128h128v-128h-128zM512 0v128h-128v128h-128v128h-128v128h-128v256h256v-128h128v-128h128v-128h128v-128h128v-256h-256zM640 640v128h128v-128h-128z" />
    <glyph glyph-name="y" unicode="y" 
d="M256 0v256h-128v128h-128v384h256v-384h256v384h256v-384h-128v-128h-128v-256h-256z" />
    <glyph glyph-name="z" unicode="z" 
d="M0 0v256h128v128h128v128h128v128h-384v128h768v-256h-128v-128h-128v-128h-128v-128h384v-128h-768z" />
    <glyph glyph-name="copyright" unicode="&#xa9;" 
d="M640 128v128h-384v256h384v128h128v-512h-128zM128 0v128h-128v512h128v128h512v-128h-384v-128h-128v-256h128v-128h384v-128h-512z" />
    <glyph glyph-name="multiply" unicode="&#xd7;" 
d="M0 0v128h128v-128h-128zM512 0v128h128v-128h-128zM128 128v128h128v-128h-128zM384 128v128h128v-128h-128zM256 256v128h128v-128h-128zM128 384v128h128v-128h-128zM384 384v128h128v-128h-128zM0 512v128h128v-128h-128zM512 512v128h128v-128h-128z" />
    <glyph glyph-name="quoteleft" unicode="&#x2018;" 
d="M512 256v128h128v-128h-128zM384 384v384h256v-256h-128v-128h-128z" />
    <glyph glyph-name="quoteright" unicode="&#x2019;" 
d="M128 256v128h128v-128h-128zM256 384v128h-128v256h256v-384h-128z" />
    <glyph glyph-name="quotedblleft" unicode="&#x201c;" 
d="M128 256v128h128v-128h-128zM512 256v128h128v-128h-128zM0 384v384h256v-256h-128v-128h-128zM384 384v384h256v-256h-128v-128h-128z" />
    <glyph glyph-name="quotedblright" unicode="&#x201d;" 
d="M128 256v128h128v-128h-128zM512 256v128h128v-128h-128zM256 384v128h-128v256h256v-384h-128zM640 384v128h-128v256h256v-384h-128z" />
    <glyph glyph-name="ellipsis" unicode="&#x2026;" 
d="M256 0v128h128v-128h-128z" />
  </font>
</defs>
</svg>
