<?xml version="1.0" standalone="no"?>
<!DOCTYPE svg PUBLIC "-//W3C//DTD SVG 1.1//EN" "http://www.w3.org/Graphics/SVG/1.1/DTD/svg11.dtd" >
<svg xmlns="http://www.w3.org/2000/svg">
<metadata></metadata>
<defs>
<font id="super_msupermariobrosalphabet" horiz-adv-x="577" >
<font-face units-per-em="2048" ascent="1638" descent="-410" />
<missing-glyph horiz-adv-x="614" />
<glyph unicode="&#xd;" horiz-adv-x="2048" />
<glyph unicode=" "  horiz-adv-x="614" />
<glyph unicode="&#x09;" horiz-adv-x="614" />
<glyph unicode="&#xa0;" horiz-adv-x="614" />
<glyph unicode="!" horiz-adv-x="286" d="M23 2h245v283h-245v-283zM23 455h245v1183h-245v-1183z" />
<glyph unicode="&#x22;" horiz-adv-x="548" d="M20 1112h224v526h-224v-526zM307 1110h223v526h-223v-526z" />
<glyph unicode="#" horiz-adv-x="1343" d="M18 356h205v279h-205v-279zM18 1040l205 2v279l-205 -2v-279zM248 4h223v1643h-223v-1643zM494 362h342v279h-342v-279zM496 1049h344v278h-344v-278zM860 4h223v1643h-223v-1643zM1110 371h205v278h-205v-278zM1110 1055l205 -2v278l-205 2v-278z" />
<glyph unicode="$" horiz-adv-x="591" d="M20 858q0 -2 7.5 -8t11.5 -10q16 -10 58 -37t89 -56.5t90 -56t60 -37.5v-325q-8 0 -37 -5.5t-37 -3.5q-6 2 -16 8.5t-10 10.5v297h-197v-426q0 -2 6 -15.5t15.5 -31t18.5 -35.5t15 -31q6 -10 15.5 -25.5t18.5 -30.5t16 -26l8 -10l65 -4v-205h182v205l66 4q4 0 11 7t7 12 q10 18 26.5 48.5t32 60.5t26 52.5t10.5 24.5v575q0 25 -52.5 56.5t-115 64.5t-114.5 63.5t-52 55.5v317h102v-317h232v430l-113 184l-70 -2q2 0 3 31t1 68t-1 68.5t-3 33.5h-178v-201l-84 2q-4 0 -10 -7t-10 -11q-2 -4 -11.5 -20.5t-21.5 -37t-23.5 -41t-17.5 -30.5 q-4 -8 -11 -23l-8 -14v-596z" />
<glyph unicode="%" horiz-adv-x="993" d="M23 1065l10 -11q10 -12 14 -18q8 -8 25.5 -27.5t21.5 -23.5q4 -2 7 -5t5 -3h213q2 0 11.5 11t15.5 18q8 10 21.5 30.5t13.5 22.5v495q0 2 -18.5 25t-28.5 33q-6 6 -14.5 15t-12.5 9h-201q-2 0 -5 -3t-7 -5q-4 -4 -21.5 -23.5t-25.5 -27.5q-4 -6 -14 -17.5t-10 -13.5v-481 zM178 1102v409h60v-409h-60zM291 0l184 1638h217l-184 -1638h-217zM614 88l10 -11q11 -11 15 -18q8 -8 25.5 -27.5t21.5 -23.5q4 -2 7 -5t5 -3h213q2 0 11.5 11.5t15.5 17.5q8 10 21.5 30.5t13.5 22.5v496q0 2 -18.5 24.5t-28.5 32.5q-6 6 -14.5 15t-12.5 9h-201q-2 0 -5 -3 t-7 -5q-4 -4 -21.5 -23.5t-25.5 -27.5q-4 -6 -14.5 -17.5t-10.5 -13.5v-481zM770 125v410h59v-410h-59z" />
<glyph unicode="&#x26;" horiz-adv-x="583" d="M18 207q0 -2 6.5 -15.5t15.5 -31t18.5 -36t15.5 -30.5q6 -10 14 -24.5t17.5 -29.5t16.5 -26l7 -10h330q4 0 9 7t9 12q2 2 6 11t10.5 21.5t11.5 22.5t9 16q8 18 22.5 50t22.5 53.5t10 25.5v252h-211v-139q0 -10 -9 -14.5t-21.5 -5.5t-22.5 -1h-12t-11.5 -1t-18.5 1 t-17 6.5t-8 14.5v991h120v-143h211v233q0 8 -15 38t-34.5 63.5t-37 63.5t-23.5 40q-4 4 -10.5 10t-8.5 6h-311l-7 -10t-16.5 -24.5t-17.5 -31t-14 -26.5t-15.5 -28.5t-18.5 -36t-16 -30.5l-6 -13v-1231zM270 666h209v305h-209v-305z" />
<glyph unicode="'" horiz-adv-x="266" d="M23 1118h223v527h-223v-527z" />
<glyph unicode="(" horiz-adv-x="591" d="M23 205q0 -2 6 -15.5t15 -31t18.5 -36t15.5 -30.5q6 -10 14 -24.5t17.5 -29.5t16.5 -26l7 -10h330q4 0 9 7t9 11q2 2 6.5 11.5t10.5 22t11 22.5t9 16q8 18 22.5 50t22.5 53.5t10 25.5v105h-274h-59l2 999h120l211 -2v92q0 8 -15 38t-34.5 63.5t-37 63.5t-23.5 40 q-4 4 -10.5 10t-8.5 6h-311l-7 -10t-16.5 -24.5t-17.5 -31t-14 -26.5t-15.5 -28.5t-18.5 -36t-15 -30.5l-6 -13v-1231z" />
<glyph unicode=")" horiz-adv-x="587" d="M18 1327l2 86q0 8 15.5 38t35 63.5t37 63.5t23.5 40l10 10t9 6h309l7 -10t16.5 -24.5t17.5 -31t14 -26.5t15.5 -28.5t18.5 -36t15 -30.5l6 -13v-1227q0 -2 -6 -15.5t-15 -31t-18.5 -36t-15.5 -30.5q-6 -10 -14 -24.5t-17.5 -29.5t-16.5 -26l-7 -10h-328q-4 0 -9 7t-9 12 q-2 2 -6.5 11t-10.5 21.5t-12 22.5t-8 16q-8 18 -22.5 50t-22.5 53.5t-11 25.5v105h275h59l-2 995h-121l-211 2z" />
<glyph unicode="*" horiz-adv-x="608" d="M18 1096l101 -2v-289l160 2v287h61v-289h154l2 289l94 2v262h-160l-2 268h-244l-1 -42t-1 -93q0 -49 1 -91l1 -42h-67h-99v-262z" />
<glyph unicode="+" horiz-adv-x="616" d="M20 651h166v-241h244v241h162v348l-162 -2v230h-244l-1 -36t-1 -79q0 -41 1 -77l1 -36l-51 -2l-115 2v-348z" />
<glyph unicode="," horiz-adv-x="286" d="M20 0h123v-127h123v412h-246v-285z" />
<glyph unicode="-" horiz-adv-x="616" d="M18 649h578v348h-578v-348z" />
<glyph unicode="." horiz-adv-x="294" d="M25 4h245v283h-245v-283z" />
<glyph unicode="/" horiz-adv-x="456" d="M29 -2l184 1638h217l-184 -1638h-217z" />
<glyph unicode="0" horiz-adv-x="595" d="M18 219q0 -2 14.5 -29.5t22.5 -44.5q6 -10 16.5 -29.5t22.5 -40t21.5 -38t13.5 -21.5t10 -11t8 -7h330l5 8t11.5 20.5t12.5 24.5t10 21q6 12 15.5 33.5t18.5 43t15 37.5l6 15v1233q0 2 -8 19t-20.5 40t-24.5 47.5t-20 38.5q-8 12 -21.5 34.5t-17.5 22.5h-312q-2 0 -8 -7 t-10 -11q-4 -6 -13.5 -22.5t-21.5 -37t-22.5 -40t-16.5 -29.5q-8 -16 -22.5 -44t-14.5 -32v-1194zM258 311v1012h92v-1012h-92z" />
<glyph unicode="1" horiz-adv-x="264" d="M20 0h224v1642h-224v-1642z" />
<glyph unicode="2" horiz-adv-x="581" d="M20 0l533 -2v633h-197v-316l-112 2v334q16 10 58 36t90 55.5t90 56t61 39.5q4 4 11 10t7 8v596q0 2 -15.5 29.5t-21.5 44.5q-4 6 -12 19.5t-17.5 28.5t-17.5 28.5t-10 17.5q-4 4 -10 11t-8 7h-316q-4 0 -10 -7t-8 -11q-10 -16 -26.5 -41t-32 -49.5t-26.5 -41.5l-10 -18 v-466h216v329q4 0 15 1t24.5 3t25.5 3t18 -1q4 0 11.5 -7t7.5 -11v-297q0 -2 -7 -9t-12 -11q-33 -25 -72.5 -52.5t-80.5 -55.5t-79 -52.5t-67 -44.5v-799z" />
<glyph unicode="3" horiz-adv-x="604" d="M25 201l8 -17q8 -18 20.5 -42.5t24.5 -49t20 -41.5q8 -12 21.5 -33.5t17.5 -21.5h334q2 0 9 7t9 11q4 4 11.5 18.5t9.5 18.5q4 8 14.5 26.5t22.5 39t22.5 39t14.5 26.5v543q-4 2 -11.5 9t-16.5 16.5t-17.5 17.5t-10.5 12v8v11q2 4 10.5 14t17.5 22.5t16.5 23.5t11.5 15 v578q0 2 -14.5 29.5t-22.5 44.5q-4 6 -12.5 20.5t-16.5 29.5t-16 26.5t-13 15.5q-2 6 -9 13t-9 7h-334q-4 0 -10 -7t-10 -13q-10 -18 -25.5 -49t-31 -60.5t-25.5 -52t-10 -24.5v-297h233v186q0 4 10.5 10t16.5 8q10 2 37.5 -2t37.5 -4v-356h-75v-318h75v-346h-102v168h-233 v-280z" />
<glyph unicode="4" d="M16 858l78 -65h268v-793h197v1638h-197v-632q0 -2 -20 -4.5t-45 -2.5q-23 0 -43.5 1t-20.5 6v632h-217v-278v-150v-166v-133v-53z" />
<glyph unicode="5" horiz-adv-x="581" d="M20 791h318v-478h-102v318h-197v-449q0 -2 8 -20.5t20.5 -43t24.5 -48t23 -37.5q4 -8 18 -22.5t19 -14.5h297q2 0 9 7t9 11q4 4 12 17.5t16.5 29t16.5 28.5t12 20q8 16 22.5 43.5t14.5 29.5v766l-55 66h-262v336h317v288h-541v-847z" />
<glyph unicode="6" d="M18 205q0 -2 7.5 -16.5t11.5 -20.5l19.5 -32.5t28.5 -46t28.5 -44t17.5 -27.5q2 -4 9 -11t10 -7h313l94 186v762l-55 64h-260v336h315v286h-407q-4 0 -17.5 -14t-19.5 -23q-10 -14 -26.5 -35.5t-32 -42t-26.5 -35.5l-10 -16v-1263zM242 315v465h92v-465h-92z" />
<glyph unicode="7" horiz-adv-x="612" d="M18 1350h351l-176 -551v-801h243v838q6 23 24.5 78t39 117.5t39 118.5t24.5 79q14 45 20.5 98t8.5 107.5t1 106.5t-1 97l-574 -2v-286z" />
<glyph unicode="8" horiz-adv-x="581" d="M20 186l95 -186h334q2 0 8 7t10 11q2 4 10 17.5t17.5 29t17.5 28.5t12 20q8 16 22.5 43.5t14.5 29.5v541q-6 2 -15 11.5t-18.5 21.5t-15.5 23.5t-6 17.5t6 18t15.5 24.5t18.5 21.5t15 12v575l-94 186h-352l-95 -186v-575q6 -2 15.5 -11.5t18.5 -22t15.5 -24.5t6.5 -18 t-6.5 -17.5t-15.5 -23.5t-18 -21.5t-16 -11.5v-541zM262 317v336h76v-336h-76zM262 987v354h76v-354h-76z" />
<glyph unicode="9" horiz-adv-x="581" d="M20 0h429l112 168v1284q0 16 -14.5 47t-34.5 61.5t-43 54t-39 23.5h-297q-2 0 -8 -7t-10 -11q-10 -12 -25.5 -35.5t-31 -50.5t-27 -49.5t-11.5 -32.5v-762l56 -65h262v-336h-318v-289zM244 858v465h94v-465h-94z" />
<glyph unicode=":" horiz-adv-x="286" d="M18 739h246v283h-246v-283zM23 0h245v283h-245v-283z" />
<glyph unicode=";" horiz-adv-x="286" d="M20 2h123v-127h123v412h-246v-285zM20 743h246v283h-246v-283z" />
<glyph unicode="=" horiz-adv-x="616" d="M18 244h578v348h-578v-348zM18 852h578v348h-578v-348z" />
<glyph unicode="?" horiz-adv-x="587" d="M20 997h218v332q0 2 26 2q27 0 50.5 -1t27.5 -1v-313l-8 -8q-8 -7 -12 -11q-6 -4 -33 -21.5t-57.5 -37.5t-54 -39.5t-23.5 -32.5v-415h254v284q8 4 27.5 17.5t43 29t43 28.5t27.5 17q4 4 11 11.5t7 9.5v602l-8 16q-8 15 -20.5 36.5t-25.5 43t-21 35.5q-8 12 -22.5 34.5 t-16.5 22.5h-318q-2 0 -9 -7l-11 -11q-4 -6 -14.5 -21.5t-22.5 -34t-23.5 -35t-15.5 -22.5q-4 -8 -11.5 -22.5t-7.5 -16.5v-471zM154 0h243v283h-243v-283z" />
<glyph unicode="@" horiz-adv-x="1226" d="M18 223l160 -223h891q4 0 23.5 30.5t43 70.5t45 76t31.5 48v1188q0 2 -21.5 37t-48 77t-49 76.5t-24.5 34.5h-895l-24 -36q-25 -35 -53.5 -78t-53.5 -78t-25 -33v-1190zM221 305v1041l789 2v-1041zM395 375h176v176h76v-176h189v807l-12 15q-11 15 -15 22 q-16 18 -38.5 44.5t-27.5 26.5h-241l-107 -108v-807zM578 745v371h61v-371h-61z" />
<glyph unicode="A" d="M25 4h213v313h90v-313h229v1436q0 2 -13.5 29.5t-21.5 42t-20.5 37t-24.5 43t-21 34.5l-10 14h-292l-129 -200v-1436zM244 666v663h75v-663h-75z" />
<glyph unicode="B" horiz-adv-x="587" d="M18 8h230v1323h102l-2 -325l-35 -27v-313l35 -35v-330l-65 2v-295h176q4 0 17 21.5t22 33.5q8 14 20 39t23.5 48.5t19.5 41t8 19.5v496q0 16 -9 26t-19.5 19.5t-19.5 19.5t-9 27q0 27 14.5 42t42.5 31v570l-110 200h-441v-1634z" />
<glyph unicode="C" horiz-adv-x="591" d="M20 211q0 -2 6.5 -15.5t15.5 -31t18.5 -35.5t15.5 -31q6 -10 14 -24.5t17.5 -29.5t16.5 -26l7 -10h330q4 0 9 7.5t9 11.5q2 2 6 11t10.5 21.5t11.5 22.5t9 16q8 18 22.5 50t22.5 53.5t10 25.5v406h-211v-293q0 -10 -9 -14t-21.5 -5.5t-22.5 -1.5h-12t-11.5 -1t-18.5 1.5 t-17 6.5t-8 14v991h120v-313h211v403q0 8 -15 38t-34.5 63.5t-37 63.5t-23.5 40q-4 4 -10.5 10t-8.5 6h-311l-7 -10t-16.5 -24.5t-17.5 -30.5t-14 -26.5t-15.5 -29t-18.5 -36t-16 -30.5l-6 -13v-1231z" />
<glyph unicode="D" d="M20 -2h213v1331h103v-997l-19 -19v-315h146q4 0 10 7t10 11q8 16 20.5 44t25 54.5t20.5 46t8 21.5v1276q0 2 -7 15.5t-11 21.5q-6 12 -17.5 32.5t-24 41t-22.5 36t-12 19.5t-8 11t-11 7h-424v-1644z" />
<glyph unicode="E" horiz-adv-x="591" d="M18 0h553v303h-313v1034h313v305h-553v-1642zM295 735h209v305h-209v-305z" />
<glyph unicode="F" horiz-adv-x="565" d="M16 0h244v1333h291v303h-531zM295 678l156 -2v330h-156v-328z" />
<glyph unicode="G" horiz-adv-x="569" d="M18 205q0 -2 6.5 -15.5t15.5 -31t18.5 -35t15.5 -29.5q6 -10 14 -25.5t17.5 -30.5t16.5 -26l7 -10h330q4 0 10 7t10 11q8 16 20.5 44t25 53.5t20.5 46t8 22.5v717h-258v-237h39l-2 -332h-92v993h100v-313h213v442q0 8 -11.5 30.5t-26.5 48.5t-31.5 50.5t-24.5 36.5 q-2 4 -9.5 10t-9.5 6h-311q-2 0 -8 -6t-10.5 -10t-11.5 -17.5t-15 -28.5t-16.5 -28.5t-12.5 -19.5q-4 -8 -13 -26.5t-16.5 -31t-7.5 -14.5v-1251z" />
<glyph unicode="H" horiz-adv-x="573" d="M20 4h230v643h92v-643h211v1634h-211v-643h-92v643h-230v-1634z" />
<glyph unicode="I" horiz-adv-x="256" d="M18 0h218v1634h-218v-1634z" />
<glyph unicode="J" horiz-adv-x="587" d="M18 186l8 -15q9 -15 21 -36.5t24.5 -43t20.5 -34.5q6 -12 20.5 -33.5t16.5 -21.5h330q2 0 8 7t10 11q2 2 6 11.5t10.5 22t11.5 22.5t9 16q8 18 21.5 50t22.5 53.5t11 25.5v1415h-213v-1321h-127v310h-211v-439z" />
<glyph unicode="K" horiz-adv-x="569" d="M20 4h211v643h129v-643h193v680q0 6 -9 19.5t-21.5 27.5t-25 26.5t-18.5 16.5l74 92v772h-193v-643h-129v643h-211v-1634z" />
<glyph unicode="L" horiz-adv-x="583" d="M20 6h549v301h-319v1329h-230v-1630z" />
<glyph unicode="M" horiz-adv-x="921" d="M20 4h213v1325h109v-1325h223v1325h127v-1325h211v1436l-129 202h-166l-147 -202q-4 4 -17.5 18.5t-17.5 18.5q-6 8 -22.5 32.5t-34 50t-32.5 49t-22 33.5h-165l-130 -202v-1436z" />
<glyph unicode="N" horiz-adv-x="587" d="M18 -2h232v1331h110v-1331h213v1421q0 16 -15 53t-36.5 75t-44 66.5t-35.5 28.5h-424v-1644z" />
<glyph unicode="O" horiz-adv-x="591" d="M18 221q0 -2 14.5 -29.5t22.5 -44.5q6 -10 16.5 -29.5t22.5 -40t21.5 -38t13.5 -21.5t10 -11t8 -7h330l5 8t11.5 20.5t12.5 25t10 20.5q6 12 15.5 33.5t18.5 43t15 37.5l6 15v1233q0 2 -8 19.5t-20.5 40t-24.5 47t-20 38.5q-8 12 -21.5 34.5t-17.5 22.5h-312q-2 0 -8 -7 t-10 -11q-4 -6 -13.5 -22.5t-21.5 -37t-22.5 -40t-16.5 -29.5q-8 -16 -22.5 -44t-14.5 -32v-1194zM258 313v1012h92v-1012h-92z" />
<glyph unicode="P" d="M20 0h216v1343h102v-335l-19 -19v-317h130q4 0 11 7t7 13q10 18 26.5 49t32 60.5t25.5 52.5t10 25v577q0 2 -14.5 29.5t-22.5 44.5q-4 6 -12 20.5t-16.5 29.5t-16.5 27.5t-12 16.5q-2 4 -9 11t-9 7h-429v-1642z" />
<glyph unicode="Q" horiz-adv-x="630" d="M18 205q0 -2 14.5 -30t22.5 -44t20.5 -37.5l25 -43t21.5 -36.5l9 -14h483v297l-28 20v1119q0 16 -13.5 46.5t-33 63.5t-40 59.5t-34.5 34.5h-334q-4 0 -10 -7t-10 -11q-2 -4 -9.5 -17.5t-16.5 -28.5t-17.5 -28.5t-12.5 -19.5q-8 -16 -22.5 -44t-14.5 -30v-1249zM242 336 v1007h112v-1007q0 -10 -8 -14.5t-18 -6.5q-6 -1 -12 -1h-7q-10 1 -12 1t-11 -1h-7q-6 0 -12 1q-9 2 -17 6.5t-8 14.5z" />
<glyph unicode="R" horiz-adv-x="552" d="M16 0h215v1343h103v-333l-37 -21v-317l45 -19v-653h197v711q-4 2 -12.5 12t-16.5 22.5t-16.5 23.5t-10.5 15q-2 2 -2 11v4t2 4q6 10 26.5 38.5t29.5 37.5v596q0 2 -8.5 18t-20.5 36.5t-25.5 42t-21.5 34.5q-4 10 -18.5 23t-18.5 13h-410v-1642z" />
<glyph unicode="S" horiz-adv-x="595" d="M20 854q0 -2 7.5 -8t11.5 -10q16 -10 58 -37t89 -56.5t90 -56.5t60 -37v-325q-8 0 -37 -5.5t-37 -3.5q-6 2 -16 8.5t-10 10.5v297h-197v-426q0 -2 6 -15.5t15.5 -31t18.5 -36t15 -30.5q6 -10 15.5 -25.5t18.5 -31t16 -25.5l8 -10h313q4 0 11 7t7 11q10 18 26.5 49t32 61 t26 52.5t10.5 24.5v575q0 25 -52.5 56.5t-115 64.5t-114.5 63.5t-52 55.5v317h102v-317h232v430l-113 184h-332q-4 0 -10 -7t-10 -11q-2 -4 -11.5 -20.5t-21.5 -37t-23.5 -41t-17.5 -30.5q-4 -8 -11 -23l-8 -14v-596z" />
<glyph unicode="T" horiz-adv-x="595" d="M18 1354h158v-1354h244v1354h158v288h-560v-288z" />
<glyph unicode="U" horiz-adv-x="591" d="M18 225q0 -2 8.5 -19.5t20.5 -41t24.5 -49t20.5 -39.5q4 -4 18.5 -25.5t20.5 -30.5q2 -4 9 -11t10 -7h331q4 0 10.5 7t10.5 11q8 16 20.5 44t24.5 54.5t20 47t8 22.5v1448h-215v-1319h-108v1319h-234v-1411z" />
<glyph unicode="V" horiz-adv-x="600" d="M20 651q0 -2 12.5 -34.5t31 -86t43 -120t49 -135t48 -131t40.5 -107.5q4 -8 10 -22.5t8 -14.5h94l224 614v1024h-215v-987h-111v987h-234v-987z" />
<glyph unicode="W" horiz-adv-x="913" d="M18 186q0 -4 14.5 -31.5t22.5 -41.5q8 -12 20.5 -32t24 -37t20.5 -30.5t11 -13.5h186q6 8 21.5 32.5t33 51.5t34 50.5t22.5 33.5q4 4 9 10t9 8q18 -16 40 -46.5t41.5 -61.5t38 -54.5t30.5 -23.5h168q2 0 8 7t10 11q6 8 16.5 24.5t23 34t22.5 33t14 21.5q8 14 22.5 42 t14.5 32v1433h-215v-1321h-111v1321h-243v-1321h-111v1321h-197v-1452z" />
<glyph unicode="X" horiz-adv-x="581" d="M20 0h216v653h110v-653h215v690l-74 92l74 95v761h-215v-632h-110v632h-216v-761q23 -23 41.5 -44.5t18.5 -50.5q0 -27 -15.5 -42t-44.5 -31v-709z" />
<glyph unicode="Y" horiz-adv-x="569" d="M17 1244v-33q0 -183 10 -353q16 -35 54 -58q32 -19 71 -19q7 0 14 1v-782h242v782q14 0 38.5 7.5t46 21.5t38 30.5t16.5 35.5v761h-195v-632h-131v632h-203q0 -193 -1 -394z" />
<glyph unicode="Z" horiz-adv-x="591" d="M18 4l551 -2v307l-325 2l331 994v333h-557v-286h344l-344 -1014v-334z" />
<glyph unicode="[" horiz-adv-x="444" d="M25 0h397v305l-158 2v1034h158v306h-397v-1647z" />
<glyph unicode="\" horiz-adv-x="448" d="M23 1638l184 -1638h217l-184 1638h-217z" />
<glyph unicode="]" horiz-adv-x="434" d="M18 -2v303l158 2v1032h-158v303h396v-1640h-396z" />
<glyph unicode="_" horiz-adv-x="616" d="M18 4h578v348h-578v-348z" />
<glyph unicode="a" horiz-adv-x="538" d="M23 2h196v197h84v-197h211v899l-12 17q-13 18 -19 26q-8 10 -20 23.5t-22.5 26t-18.5 21.5t-10 9h-271l-118 -123v-899zM225 416v413h70v-413h-70z" />
<glyph unicode="b" horiz-adv-x="595" d="M23 14h229v822h102l2 -193l-30 -22v-195l30 -31v-190h-57v-189l164 -2q4 0 17.5 13.5l21.5 21.5t20.5 23.5t23.5 30t19 25.5l8 11v307q0 10 -9 17.5t-19 12.5t-19.5 11.5t-9.5 16.5q0 16 14.5 26.5t42.5 20.5v352l-110 125h-440v-1014z" />
<glyph unicode="c" horiz-adv-x="583" d="M18 129q0 -2 21.5 -27.5t34.5 -42.5q6 -6 14 -16t17.5 -19.5t16.5 -15.5l7 -6h326q4 0 9 4t9 8t17.5 20.5t19.5 24.5q8 10 22.5 31t22.5 34t10 15v254h-209v-182q0 -6 -9 -9t-21.5 -4t-22.5 -1h-12h-12q-8 0 -17.5 1t-17.5 4t-8 9v620h120v-196h209v254q0 4 -15 22.5 t-34.5 40t-37 40t-23.5 24.5q-4 2 -9.5 6t-7.5 4h-309q-2 0 -23.5 -21.5t-31.5 -35.5q-8 -8 -21.5 -25.5t-23 -29t-11.5 -13.5v-772z" />
<glyph unicode="d" horiz-adv-x="581" d="M27 4h211v825h102v-618l-18 -12v-195h143q4 0 10 4t10 8q8 10 20.5 26.5t25 34t20.5 29.5l8 13v790q0 2 -7 10.5t-11 12.5q-6 8 -17.5 20.5t-24 25.5t-22.5 22.5t-12 11.5q-2 4 -8 8t-11 4h-419v-1020z" />
<glyph unicode="e" horiz-adv-x="595" d="M23 4h548v189h-311v643h311v190h-548v-1022zM297 461h207v190h-207v-190z" />
<glyph unicode="f" d="M18 0h244v836h293v190h-532zM297 426l158 -2v207h-158v-205z" />
<glyph unicode="g" d="M18 131q0 -4 21.5 -29.5t34.5 -40.5q6 -6 14 -16t17.5 -19.5t16.5 -15.5l7 -6h332q4 0 10 4t10 8q8 10 20.5 26.5l25 33t20.5 29t8 14.5v446h-260v-147h41l-2 -207h-94v618h102v-196h213v276q0 6 -11.5 19.5t-26.5 30t-31.5 31t-24.5 22.5q-2 4 -9.5 7t-9.5 3h-313 q-8 0 -18 -10q-4 -2 -11.5 -10.5t-15.5 -17.5t-16.5 -17.5l-12.5 -12.5q-8 -10 -23 -28l-14 -17v-778z" />
<glyph unicode="h" d="M23 2h229v404h92v-404h211v1024h-211v-403h-92v403h-229v-1024z" />
<glyph unicode="i" horiz-adv-x="266" d="M23 2h217v1028h-217v-1028z" />
<glyph unicode="j" horiz-adv-x="591" d="M18 117q2 -2 14.5 -15.5t31 -34t28.5 -30.5q6 -8 20.5 -21.5t16.5 -13.5h330q2 0 8 4t10 8t17.5 20.5t19.5 24.5q8 10 21.5 31t22.5 34t11 15v887h-213v-827h-127v194h-211v-276z" />
<glyph unicode="k" d="M23 0h210v403h129v-403h193v426q0 4 -9 12t-21.5 17.5t-25 16.5t-18.5 11l74 58v483h-193v-403h-129v403h-210v-1024z" />
<glyph unicode="l" horiz-adv-x="595" d="M23 2h548v188h-319v836h-229v-1024z" />
<glyph unicode="m" horiz-adv-x="925" d="M18 4h213v825h109v-825h225v825h127v-825h211v893l-129 127h-166l-149 -127q-4 4 -17.5 12.5t-17.5 10.5q-6 6 -22.5 20t-34 31.5t-33 32t-21.5 20.5h-166l-129 -127v-893z" />
<glyph unicode="n" horiz-adv-x="608" d="M23 2h235v827h113v-827h217v885q0 10 -16.5 32.5t-38 46t-44 42t-34.5 18.5h-432v-1024z" />
<glyph unicode="o" horiz-adv-x="591" d="M20 141l14 -17q15 -18 23 -28q6 -6 16.5 -18t23 -25.5t21.5 -24t13 -12.5q4 -4 10 -8t9 -4h329q2 0 16.5 17.5t22.5 27.5q6 8 15.5 21.5t18.5 27t15 23.5l6 10v766q0 2 -8 13.5t-20.5 25.5t-24.5 28.5t-20 22.5t-21.5 22.5t-17.5 14.5h-311q-2 0 -8.5 -4t-10.5 -8 t-13 -14.5t-21.5 -22.5t-23 -24.5t-16.5 -18.5q-8 -10 -22.5 -27.5t-14.5 -19.5v-744zM260 199v630h92v-630h-92z" />
<glyph unicode="p" horiz-adv-x="583" d="M23 4h215v838h102v-209l-18 -12v-197h129q4 0 11 4t7 8q10 12 26.5 30.5t32 37t25.5 33t10 16.5v360l-14 17q-14 18 -23 28q-4 4 -12 13.5t-16.5 18.5t-16.5 17.5t-12 10.5q-2 4 -9 8t-9 4h-428v-1026z" />
<glyph unicode="q" horiz-adv-x="634" d="M18 131l14 -17q15 -18 23 -28t20.5 -24.5t25 -26.5t21.5 -21l9 -10h483v184l-28 13v696q0 10 -13.5 29.5t-33 39t-40 37t-34.5 21.5h-334q-4 0 -10 -4t-10 -8q-2 -2 -9.5 -10.5t-16.5 -17.5l-17.5 -17.5l-12.5 -12.5q-8 -10 -22.5 -27.5t-14.5 -19.5v-776zM242 213v627 h112v-627q0 -6 -8 -9t-18 -3h-19h-12h-12h-19q-8 0 -16 3t-8 9z" />
<glyph unicode="r" horiz-adv-x="569" d="M23 4h217v836h102v-209l-37 -13v-196l45 -12v-406h199v442q-8 4 -28.5 21.5t-26.5 24.5q-2 2 -2 4v2v2q0 4 2 4q6 4 26.5 23.5t28.5 23.5v371l-9 10q-8 10 -20 22.5t-25.5 25.5t-21.5 21q-4 6 -19.5 15.5t-19.5 9.5h-411v-1022z" />
<glyph unicode="s" horiz-adv-x="604" d="M23 537l7 -5q7 -4 11 -6q16 -6 58 -23.5t90.5 -35.5t91.5 -34.5t61 -22.5v-205q-8 0 -38 -3t-38 -1q-6 0 -16 4t-10 6v186h-199v-266q0 -4 21.5 -29.5t33.5 -42.5q6 -6 15.5 -16t18.5 -19.5t18 -15.5l8 -6h315q4 0 11 4t7 8q12 12 29 30.5t32 37t25.5 33t10.5 16.5v361 q0 10 -24.5 22t-62.5 25.5t-82 27t-82 26.5t-62.5 25.5t-24.5 22.5v199h104v-199h234v270l-115 115h-334q-4 0 -11 -4t-11 -6q-2 -4 -11.5 -14.5t-21.5 -22.5t-23.5 -25.5t-17.5 -19.5q-4 -4 -11 -14l-7 -9v-374z" />
<glyph unicode="t" horiz-adv-x="604" d="M20 844h160v-844h246v844h160v180h-566v-180z" />
<glyph unicode="u" horiz-adv-x="595" d="M18 143l8 -11q9 -11 21 -26.5t24.5 -31t20.5 -25.5q4 -2 18.5 -15.5t18.5 -17.5q2 -4 10 -8t11 -4h329q4 0 9.5 4t9.5 8q8 10 20 26.5t24.5 34t20.5 30t8 14.5v903h-213v-823h-108v823h-232v-881z" />
<glyph unicode="v" horiz-adv-x="595" d="M23 410l25 -46q24 -45 59.5 -106t72.5 -125.5t62 -107.5q4 -4 10 -13.5t8 -9.5h92l219 385v639h-211v-616h-108v616h-229v-616z" />
<glyph unicode="w" horiz-adv-x="925" d="M23 119q0 -2 14 -19.5l22 -27.5q8 -8 20.5 -19.5t24 -23t20.5 -19.5t11 -8h189q6 6 21 21.5t32.5 32t34 30.5t22.5 20q4 4 9.5 7.5t9.5 5.5q18 -10 39.5 -29.5t41 -39t38 -34t30.5 -14.5h170q2 0 8 4t11 8q6 4 16 14.5t22.5 21.5t22.5 20.5t14 13.5q8 10 22.5 26.5 t14.5 20.5v895h-217v-825h-111v825h-243v-825h-113v825h-196v-907z" />
<glyph unicode="x" horiz-adv-x="581" d="M20 2h213v408h111v-408h213v432l-74 55l74 62v475h-213v-395h-111v395h-213v-475q23 -16 41.5 -28.5t18.5 -33.5q0 -16 -15.5 -25.5t-44.5 -19.5v-442z" />
<glyph unicode="y" horiz-adv-x="573" d="M19 780v-21q0 -114 10 -220q16 -23 54 -36q33 -11 73 -11h12v-488h242v488q14 0 38.5 4t46 12t38 19.5t16.5 21.5v475h-195v-393h-131v393h-203q0 -119 -1 -244z" />
<glyph unicode="z" horiz-adv-x="595" d="M25 2l542 -2v193l-321 2l327 622v209h-548v-180h340l-340 -635v-209z" />
<glyph unicode="{" horiz-adv-x="774" d="M18 932l2 -279l158 2v279zM203 205q0 -2 6 -15.5t15 -31t18.5 -36t15.5 -30.5q6 -10 14.5 -24.5t17.5 -29.5t16 -26l7 -10h330q4 0 9 7t10 11q2 2 6 11.5t10 22t11 22.5t9 16q8 18 22.5 50t23 53.5t10.5 25.5v105h-275h-59l2 999h121l211 -2v92q0 8 -15.5 38t-35 63.5 t-37 63.5t-23.5 40l-10 10t-8 6h-312l-7 -10t-16 -24.5t-17.5 -31t-14.5 -26.5t-15.5 -28.5t-18.5 -36t-15 -30.5l-6 -13v-1231z" />
<glyph unicode="|" horiz-adv-x="256" d="M18 2h218v1634h-218v-1634z" />
<glyph unicode="}" horiz-adv-x="761" d="M16 219v105h275h59l-2 999h-121h-211v90q0 8 15.5 38t35 63.5t37 63.5t23.5 40l10 10t8 6h312l7 -10t16 -24.5t17.5 -31t14.5 -26.5t15.5 -28.5t18.5 -36t15 -30.5l6 -13v-1231q0 -2 -6 -15.5t-15 -31t-18.5 -36t-15.5 -30.5q-6 -10 -14.5 -24.5t-17.5 -30t-16 -25.5 l-7 -10h-330q-4 0 -9 7t-9 11q-2 2 -6.5 11.5t-10.5 21.5t-12 22.5t-8 16.5q-8 18 -22.5 50t-23 53.5t-10.5 25.5zM592 653v279h151v-277z" />
<glyph unicode="&#xa9;" horiz-adv-x="1226" d="M16 225l160 -223h891q4 0 23.5 30.5t43 70.5t45 76t31.5 48v1188q0 2 -21.5 37t-48 77t-49 76.5t-24.5 34.5h-895l-24 -36q-25 -35 -53.5 -78t-53.5 -78t-25 -33v-1190zM219 307v1041l785 -2v-1041zM356 469q0 -2 20.5 -25.5t31.5 -40.5l14 -14t16 -17.5t16 -15.5l7 -6 h303q4 0 9 4t9 8q4 2 16.5 18.5t18.5 22.5q8 10 20.5 29t20.5 32t10 15v238h-196v-172q0 -6 -9.5 -8t-19.5 -3.5t-20 -1.5h-13h-10h-18q-8 0 -15.5 3.5t-7.5 9.5v581h113v-184h196v238q0 4 -14 21.5t-32.5 38t-35 37.5t-22.5 21q-4 2 -8 6.5t-6 4.5h-289l-7 -7 q-8 -6 -16 -14t-16 -17t-14 -16q-6 -8 -19.5 -24.5t-22 -26.5t-10.5 -12v-723z" />
<glyph unicode="&#xad;" horiz-adv-x="616" d="M18 649h578v348h-578v-348z" />
<glyph unicode="&#xae;" horiz-adv-x="1226" d="M16 225l160 -223h891q4 0 23.5 30.5t43 70.5t45 76t31.5 48v1188q0 2 -21.5 37t-48 77t-49 76.5t-24.5 34.5h-895l-24 -36q-25 -35 -53.5 -78t-53.5 -78t-25 -33v-1190zM219 307v1041l785 -2v-1041zM379 354h201v770h94v-192l-35 -10v-183l41 -10v-375h184v408 q-8 4 -26.5 20.5t-24.5 20.5q-2 2 -2 4v2v2q0 4 2 4q6 4 24.5 21.5t26.5 21.5v342l-8 10q-8 9 -18.5 21t-22.5 24.5t-20 18.5q-4 6 -18.5 14t-18.5 8h-379v-942z" />
<glyph unicode="&#xdf;" horiz-adv-x="587" d="M18 1638l5 -1777h225v1466h102l-2 -326l-35 -26v-313l35 -35v-330l-65 2v-295h176q4 0 17 21.5t22 33.5q8 14 20 39t23.5 48.5t19.5 41t8 19.5v495q0 16 -9 26.5t-19.5 20t-19.5 19.5t-9 27q0 27 14.5 42t42.5 31v570l-110 200h-441z" />
<glyph unicode="&#x2000;" horiz-adv-x="918" />
<glyph unicode="&#x2001;" horiz-adv-x="1837" />
<glyph unicode="&#x2002;" horiz-adv-x="918" />
<glyph unicode="&#x2003;" horiz-adv-x="1837" />
<glyph unicode="&#x2004;" horiz-adv-x="612" />
<glyph unicode="&#x2005;" horiz-adv-x="459" />
<glyph unicode="&#x2006;" horiz-adv-x="306" />
<glyph unicode="&#x2007;" horiz-adv-x="306" />
<glyph unicode="&#x2008;" horiz-adv-x="229" />
<glyph unicode="&#x2009;" horiz-adv-x="367" />
<glyph unicode="&#x200a;" horiz-adv-x="102" />
<glyph unicode="&#x2010;" horiz-adv-x="616" d="M18 649h578v348h-578v-348z" />
<glyph unicode="&#x2011;" horiz-adv-x="616" d="M18 649h578v348h-578v-348z" />
<glyph unicode="&#x2012;" horiz-adv-x="616" d="M18 649h578v348h-578v-348z" />
<glyph unicode="&#x2013;" horiz-adv-x="1062" d="M18 649h1024v348h-1024v-348z" />
<glyph unicode="&#x2014;" horiz-adv-x="2086" d="M18 649h2048v348h-2048v-348z" />
<glyph unicode="&#x202f;" horiz-adv-x="367" />
<glyph unicode="&#x205f;" horiz-adv-x="459" />
<glyph unicode="&#xe000;" horiz-adv-x="1024" d="M0 0v1024h1024v-1024h-1024z" />
</font>
</defs>
</svg>
